HIERARCHY
ROOT SpineBase
{
  OFFSET 0.000000 0.000000 0.000000
  CHANNELS 6 Xposition Yposition Zposition Zrotation Xrotation Yrotation
  JOINT SpineMid
  {
    OFFSET 0.000000 28.995239 0.000000
    CHANNELS 3 Zrotation Xrotation Yrotation
    JOINT SpineShoulder
    {
      OFFSET 0.042294 21.460436 -0.613427
      CHANNELS 3 Zrotation Xrotation Yrotation
      JOINT Neck
      {
        OFFSET 0.019502 7.084367 -0.489663
        CHANNELS 3 Zrotation Xrotation Yrotation
        JOINT Head
        {
          OFFSET -0.729784 12.866775 0.243338
          CHANNELS 3 Zrotation Xrotation Yrotation
          End Site
          {
            OFFSET 0 0 0
          }
        }
      }
      JOINT ShoulderLeft
      {
        OFFSET -16.706825 -2.810074 2.563445
        CHANNELS 3 Zrotation Xrotation Yrotation
        JOINT ElbowLeft
        {
          OFFSET -5.629750 -25.867160 1.326061
          CHANNELS 3 Zrotation Xrotation Yrotation
          JOINT WristLeft
          {
            OFFSET -4.616738 -22.081867 -2.830299
            CHANNELS 3 Zrotation Xrotation Yrotation
            JOINT HandLeft
            {
              OFFSET -0.381027 -7.815898 0.962250
              CHANNELS 3 Zrotation Xrotation Yrotation
              JOINT HandTipLeft
              {
                OFFSET -0.698045 -7.841675 0.136968
                CHANNELS 3 Zrotation Xrotation Yrotation
                End Site
                {
                  OFFSET 0 0 0
                }
              }
              JOINT ThumbLeft
              {
                OFFSET 2.710681 0.011081 -1.391638
                CHANNELS 3 Zrotation Xrotation Yrotation
                End Site
                {
                  OFFSET 0 0 0
                }
              }
            }
          }
        }
      }
      JOINT ShoulderRight
      {
        OFFSET 16.124270 -2.575059 -5.367953
        CHANNELS 3 Zrotation Xrotation Yrotation
        JOINT ElbowRight
        {
          OFFSET 6.370901 -25.179022 -2.991552
          CHANNELS 3 Zrotation Xrotation Yrotation
          JOINT WristRight
          {
            OFFSET -3.780947 -21.286319 -8.611002
            CHANNELS 3 Zrotation Xrotation Yrotation
            JOINT HandRight
            {
              OFFSET -2.249842 -7.907358 -2.140688
              CHANNELS 3 Zrotation Xrotation Yrotation
              JOINT HandTipRight
              {
                OFFSET -1.044655 -6.349799 -2.488325
                CHANNELS 3 Zrotation Xrotation Yrotation
                End Site
                {
                  OFFSET 0 0 0
                }
              }
              JOINT ThumbRight
              {
                OFFSET 2.735863 -1.259607 -2.699223
                CHANNELS 3 Zrotation Xrotation Yrotation
                End Site
                {
                  OFFSET 0 0 0
                }
              }
            }
          }
        }
      }
    }
  }
  JOINT HipLeft
  {
    OFFSET -7.337223 0.504591 -2.102733
    CHANNELS 3 Zrotation Xrotation Yrotation
    JOINT KneeLeft
    {
      OFFSET -5.837095 -31.932099 3.305946
      CHANNELS 3 Zrotation Xrotation Yrotation
      JOINT AnkleLeft
      {
        OFFSET -1.701681 -34.517265 7.954148
        CHANNELS 3 Zrotation Xrotation Yrotation
        JOINT FootLeft
        {
          OFFSET 1.606362 -7.670317 -6.087170
          CHANNELS 3 Zrotation Xrotation Yrotation
          End Site
          {
            OFFSET 0 0 0
          }
        }
      }
    }
  }
  JOINT HipRight
  {
    OFFSET 6.966721 0.592257 -4.754532
    CHANNELS 3 Zrotation Xrotation Yrotation
    JOINT KneeRight
    {
      OFFSET 4.508623 -27.880974 4.725257
      CHANNELS 3 Zrotation Xrotation Yrotation
      JOINT AnkleRight
      {
        OFFSET 2.815963 -37.821236 12.469498
        CHANNELS 3 Zrotation Xrotation Yrotation
        JOINT FootRight
        {
          OFFSET -4.144629 -5.034121 -9.192032
          CHANNELS 3 Zrotation Xrotation Yrotation
          End Site
          {
            OFFSET 0 0 0
          }
        }
      }
    }
  }
}
MOTION
Frames: 10
Frame Time: 0.033333
18.906591 76.431366 364.338856 -2.459303 1.178832 26.959730 0.154368 -0.631862 -26.999340 0.295483 -0.203554 -0.063414 5.050433 3.397824 0.201045 0.000000 0.000000 0.000000 -19.812240 24.265546 -1.808923 127.456341 75.511969 -110.786999 -4.545799 9.280475 38.933902 -2.280519 -13.779319 -8.489300 0.000000 0.000000 0.000000 0.000000 0.000000 0.000000 -25.742708 27.140456 17.692150 -58.468354 27.079246 18.317487 8.921003 3.763171 -11.514755 -8.015746 -18.809566 2.358878 0.000000 0.000000 0.000000 0.000000 0.000000 0.000000 3.478718 -1.441840 -26.980306 -0.267313 1.398590 0.215515 -22.451008 26.855589 23.853058 0.000000 0.000000 0.000000 1.515713 -4.257029 -27.083729 0.699425 2.827379 0.693984 -1.248777 8.888592 -7.869256 0.000000 0.000000 0.000000
18.890503 76.456377 364.269556 -2.470071 1.241649 26.607821 0.124582 -0.628772 -26.647862 0.273283 -0.254087 -0.067471 5.087572 3.657571 0.214070 0.000000 0.000000 0.000000 -19.769044 24.773888 -1.815116 122.941390 75.138291 -104.879905 -6.648739 10.941083 34.521623 -0.062750 -14.539886 -4.600361 0.000000 0.000000 0.000000 0.000000 0.000000 0.000000 -25.201118 27.196219 17.523252 -60.064393 25.450842 17.852074 7.642354 4.048152 -11.801435 -4.174258 -11.064807 7.948647 0.000000 0.000000 0.000000 0.000000 0.000000 0.000000 3.361285 -1.527589 -26.619233 -0.164678 1.417711 0.217570 -22.466807 26.941111 23.857916 0.000000 0.000000 0.000000 1.681684 -4.276925 -26.682749 0.485388 2.560458 0.624022 -1.156497 9.061890 -7.843662 0.000000 0.000000 0.000000
18.891724 76.461977 364.182380 -2.470164 1.340244 26.208232 0.081819 -0.644769 -26.248337 0.241702 -0.281593 -0.071715 5.118133 3.961340 0.232830 0.000000 0.000000 0.000000 -19.617568 25.368833 -1.855673 121.744821 75.150624 -103.406555 -11.208386 14.397534 24.297494 11.721824 -13.449480 16.892588 0.000000 0.000000 0.000000 0.000000 0.000000 0.000000 -25.091146 26.888180 17.355707 -61.791102 23.350127 17.600460 5.774246 4.035999 -12.325969 -2.897782 -4.008293 12.547232 0.000000 0.000000 0.000000 0.000000 0.000000 0.000000 3.156612 -1.610973 -26.218836 0.024857 1.392148 0.233656 -24.099312 28.638828 25.649068 0.000000 0.000000 0.000000 1.753393 -4.441252 -26.261808 0.240935 2.494343 0.567715 -1.031201 9.177385 -7.801533 0.000000 0.000000 0.000000
18.901883 76.452609 364.099331 -2.475013 1.443177 25.843046 0.033335 -0.678684 -25.883567 0.206641 -0.293451 -0.076189 5.179881 4.300127 0.252110 0.000000 0.000000 0.000000 -19.278883 26.040660 -1.932484 114.510344 75.544199 -95.845453 -11.289493 11.987127 22.433125 1.358488 -13.121339 -3.824322 0.000000 0.000000 0.000000 0.000000 0.000000 0.000000 -26.058141 26.374002 17.534420 -61.294453 23.190278 18.098779 -3.023463 -2.345101 -17.742253 3.008708 8.373728 20.639035 0.000000 0.000000 0.000000 0.000000 0.000000 0.000000 2.933563 -1.573638 -25.883027 0.362340 1.130527 0.303868 -23.808111 28.590875 25.256833 0.000000 0.000000 0.000000 1.721994 -4.858092 -25.921577 -0.079335 2.734799 0.535058 -0.807858 9.273083 -7.823109 0.000000 0.000000 0.000000
18.909206 76.413013 364.002404 -2.477327 1.570948 25.468689 -0.009696 -0.719139 -25.508839 0.182929 -0.259977 -0.078715 5.167666 4.504493 0.275948 0.000000 0.000000 0.000000 -18.987084 26.723115 -2.035025 107.121618 75.543136 -87.850018 -11.057840 17.488542 24.251799 -8.312933 -22.522113 -14.220559 0.000000 0.000000 0.000000 0.000000 0.000000 0.000000 -26.392985 25.771432 17.390314 -61.196530 23.589213 18.989642 -7.388285 -7.392648 -22.017402 4.799652 14.259113 23.786677 0.000000 0.000000 0.000000 0.000000 0.000000 0.000000 2.703612 -1.518975 -25.546014 0.757920 0.742874 0.400101 -20.234343 25.104007 21.132873 0.000000 0.000000 0.000000 1.682174 -5.176517 -25.563214 -0.290152 2.954360 0.517697 -0.660428 9.275867 -7.826991 0.000000 0.000000 0.000000
18.913518 76.388058 363.920705 -2.479382 1.707954 25.279489 -0.027957 -0.748248 -25.317711 0.170042 -0.185657 -0.078925 5.079160 4.480718 0.300849 0.000000 0.000000 0.000000 -18.895337 26.922931 -2.120498 100.677776 75.140558 -80.520160 -8.351959 20.362704 31.904871 -21.141391 -23.813599 -29.728997 0.000000 0.000000 0.000000 0.000000 0.000000 0.000000 -26.065665 25.121888 16.937710 -60.590643 24.855303 19.971741 -6.592004 -6.298714 -21.051352 6.443115 10.919093 21.328706 0.000000 0.000000 0.000000 0.000000 0.000000 0.000000 2.508890 -1.387203 -25.412701 1.151164 0.272962 0.517441 -19.368172 24.071748 19.974326 0.000000 0.000000 0.000000 1.764211 -5.147912 -25.324006 -0.224974 2.885190 0.521058 -0.793514 9.152085 -7.816337 0.000000 0.000000 0.000000
18.914007 76.401282 363.854947 -2.472458 1.834552 25.207905 -0.018344 -0.761674 -25.242685 0.174493 -0.095875 -0.076313 4.850361 4.287800 0.324381 0.000000 0.000000 0.000000 -19.090589 26.710255 -2.162862 103.448860 74.694527 -82.525047 -7.546009 24.760503 37.850999 -33.111706 -27.505200 -40.354087 0.000000 0.000000 0.000000 0.000000 0.000000 0.000000 -25.347749 24.755143 16.461296 -58.882923 27.350381 20.650331 -0.186059 -2.107704 -16.521645 2.699739 0.566733 15.374865 0.000000 0.000000 0.000000 0.000000 0.000000 0.000000 2.376991 -1.254346 -25.392983 1.425034 -0.172310 0.617867 -15.094330 18.643440 14.960533 0.000000 0.000000 0.000000 1.698103 -5.233468 -25.250940 -0.256800 3.116395 0.523243 -0.739413 8.914935 -7.829451 0.000000 0.000000 0.000000
18.916440 76.435927 363.788974 -2.440948 1.965327 25.201135 0.006398 -0.764376 -25.231053 0.206871 -0.010507 -0.070130 4.457700 3.963495 0.342994 0.000000 0.000000 0.000000 -20.039224 25.544661 -2.069934 114.818811 73.961107 -92.953418 -7.498046 28.432709 44.911701 -44.969923 -30.354399 -48.613661 0.000000 0.000000 0.000000 0.000000 0.000000 0.000000 -24.309802 24.666169 15.981739 -56.137296 30.935414 20.859591 2.955474 -1.844002 -14.960288 0.897426 -8.595287 10.021861 0.000000 0.000000 0.000000 0.000000 0.000000 0.000000 2.264466 -1.072361 -25.446864 1.688501 -0.709136 0.734680 -11.966396 14.562150 11.277563 0.000000 0.000000 0.000000 1.496958 -5.364191 -25.278351 -0.286307 3.495793 0.535063 -0.293476 10.628867 -9.543527 0.000000 0.000000 0.000000
18.916506 76.482154 363.736801 -2.412522 2.074489 25.236484 0.027999 -0.751200 -25.262289 0.232029 0.065205 -0.065205 4.189867 3.594197 0.352576 0.000000 0.000000 0.000000 -20.309829 24.810994 -2.104150 120.241354 73.048855 -97.789096 -7.910807 29.834864 47.333363 -49.819239 -35.603915 -47.439141 0.000000 0.000000 0.000000 0.000000 0.000000 0.000000 -22.969433 24.816962 15.521180 -54.526318 32.815633 20.202205 5.589310 -0.177700 -13.192029 -0.615775 -16.502677 6.087263 0.000000 0.000000 0.000000 0.000000 0.000000 0.000000 2.187347 -0.907809 -25.535026 1.924749 -1.138123 0.841381 -13.112839 15.387330 12.288986 0.000000 0.000000 0.000000 1.162154 -5.520812 -25.393832 -0.076753 3.916584 0.611839 -0.440380 9.708239 -8.949379 0.000000 0.000000 0.000000
18.920899 76.530336 363.695152 -2.369265 2.156908 25.190344 0.058287 -0.722811 -25.212051 0.258016 0.110610 -0.060037 3.898213 3.199879 0.354126 0.000000 0.000000 0.000000 -20.058359 24.907041 -2.232081 122.447596 72.463616 -99.905582 -8.905338 29.138681 44.582072 -44.869855 -46.112677 -34.620165 0.000000 0.000000 0.000000 0.000000 0.000000 0.000000 -21.426371 25.004484 14.996499 -54.582609 32.620183 19.169544 4.902040 1.360275 -12.756171 3.347701 -18.646054 6.327449 0.000000 0.000000 0.000000 0.000000 0.000000 0.000000 2.123786 -0.713587 -25.542069 2.122648 -1.508652 0.938244 -13.207523 15.089083 12.195091 0.000000 0.000000 0.000000 0.953251 -5.137315 -25.355604 0.483716 3.561034 0.674986 -1.932449 7.602727 -5.652407 0.000000 0.000000 0.000000
